<svg width="15" height="15" viewBox="0 0 15 15" fill="none" xmlns="http://www.w3.org/2000/svg">
<path fill-rule="evenodd" clip-rule="evenodd" d="M4.49562 0.289699C4.53962 0.201473 4.60282 0.128256 4.67889 0.077404C4.75495 0.026552 4.8412 -0.00014338 4.92895 5.79175e-07H9.40429C9.49193 -7.47563e-06 9.57804 0.0267523 9.65398 0.0775975C9.72992 0.128443 9.79302 0.201587 9.83696 0.289699L14.2656 9.18359C14.311 9.27442 14.3344 9.37786 14.3332 9.48288C14.332 9.58791 14.3064 9.6906 14.259 9.78003L11.9856 14.0542C11.9408 14.1385 11.8783 14.2081 11.8038 14.2564C11.7294 14.3046 11.6455 14.33 11.5603 14.33H2.77295C2.68771 14.33 2.60388 14.3046 2.52943 14.2564C2.45499 14.2081 2.3924 14.1385 2.34762 14.0542L0.0742878 9.78003C0.0268748 9.6906 0.00121611 9.58791 4.21722e-05 9.48288C-0.00113176 9.37786 0.022223 9.27442 0.0676211 9.18359L4.49562 0.289699ZM4.92962 1.73819L1.08229 9.46555L2.76095 12.6236L4.49629 9.18359L4.49695 9.18127L6.57629 5.02867L4.92962 1.73819ZM7.15496 6.18359L5.79762 8.8939H8.51095L7.15496 6.18359ZM9.66829 8.8939H12.9663L9.11562 1.16189H5.79762L9.66829 8.8939ZM12.9363 10.0558H5.21495L3.64495 13.1681H11.2816L12.9363 10.0558Z" fill="#004C9B"/>
</svg>
